<svg xmlns="http://www.w3.org/2000/svg" viewBox="0 0 36 36"><defs><clipPath id="c"><rect width="36" height="36" rx="8.5"/></clipPath><linearGradient id="s" x1="0" y1="0" x2="0" y2="1"><stop offset="0" stop-color="#000" stop-opacity="0.22"/><stop offset="1" stop-color="#000" stop-opacity="0"/></linearGradient></defs><g clip-path="url(#c)"><rect width="36" height="36" fill="#FFFFFF"/><rect y="8.58" width="36" height="2.2" fill="url(#s)"/><rect width="36" height="8.58" fill="#FBFAF8"/><rect width="36" height="4.29" fill="#1B1A17"/><path d="M-3 0h4l1.95 4.29h-4z" fill="#FBFAF8"/><path d="M5 0h4l1.95 4.29h-4z" fill="#FBFAF8"/><path d="M13 0h4l1.95 4.29h-4z" fill="#FBFAF8"/><path d="M21 0h4l1.95 4.29h-4z" fill="#FBFAF8"/><path d="M29 0h4l1.95 4.29h-4z" fill="#FBFAF8"/><rect y="4.59" width="36" height="3.99" fill="#1B1A17"/><path d="M-3 8.58l1.95-3.99h4l-1.95 3.99z" fill="#FBFAF8"/><path d="M5 8.58l1.95-3.99h4l-1.95 3.99z" fill="#FBFAF8"/><path d="M13 8.58l1.95-3.99h4l-1.95 3.99z" fill="#FBFAF8"/><path d="M21 8.58l1.95-3.99h4l-1.95 3.99z" fill="#FBFAF8"/><path d="M29 8.58l1.95-3.99h4l-1.95 3.99z" fill="#FBFAF8"/><rect y="8.58" width="36" height="0.45" fill="#8A857B"/><path d="M7 14.88h22M7 19.38h22M7 23.88h22M7 28.38h14" stroke="#D2CCC0" stroke-width="1.4" stroke-linecap="round"/></g><rect x="0.5" y="0.5" width="35" height="35" rx="8" fill="none" stroke="#DDD8CE"/></svg>
